<?xml version="1.0" encoding="UTF-8" standalone="no"?>
<svg
   xmlns:dc="http://purl.org/dc/elements/1.1/"
   xmlns:cc="http://creativecommons.org/ns#"
   xmlns:rdf="http://www.w3.org/1999/02/22-rdf-syntax-ns#"
   xmlns:svg="http://www.w3.org/2000/svg"
   xmlns="http://www.w3.org/2000/svg"
   xmlns:sodipodi="http://sodipodi.sourceforge.net/DTD/sodipodi-0.dtd"
   xmlns:inkscape="http://www.inkscape.org/namespaces/inkscape"
   width="256"
   height="256"
   viewBox="0 0 67.733332 67.733335"
   version="1.1"
   id="svg8"
   inkscape:export-filename="/Users/CakewalkDev/Desktop/GitHub/BallBlastUnityCaseStudy/Assets/Art/BulletV1.png"
   inkscape:export-xdpi="96"
   inkscape:export-ydpi="96"
   inkscape:version="1.0.2 (e86c8708, 2021-01-15)"
   sodipodi:docname="BulletV1.svg">
  <defs
     id="defs2" />
  <sodipodi:namedview
     id="base"
     pagecolor="#ffffff"
     bordercolor="#666666"
     borderopacity="1.0"
     inkscape:pageopacity="0.0"
     inkscape:pageshadow="2"
     inkscape:zoom="1.1915735"
     inkscape:cx="133.34663"
     inkscape:cy="149.68881"
     inkscape:document-units="mm"
     inkscape:current-layer="layer1"
     inkscape:document-rotation="0"
     showgrid="false"
     units="px"
     inkscape:snap-global="false"
     inkscape:window-width="1252"
     inkscape:window-height="747"
     inkscape:window-x="0"
     inkscape:window-y="25"
     inkscape:window-maximized="0" />
  <metadata
     id="metadata5">
    <rdf:RDF>
      <cc:Work
         rdf:about="">
        <dc:format>image/svg+xml</dc:format>
        <dc:type
           rdf:resource="http://purl.org/dc/dcmitype/StillImage" />
        <dc:title></dc:title>
      </cc:Work>
    </rdf:RDF>
  </metadata>
  <g
     inkscape:label="Layer 1"
     inkscape:groupmode="layer"
     id="layer1">
    <path
       id="rect833"
       style="fill:#000000;fill-opacity:1;stroke-width:0.3"
       d="M 12.106224,25.535213 C 14.477774,16.230967 24.04289,9.7699936 33.866667,6.661359 c 9.601732,3.33068 19.320895,9.587205 21.760443,18.873854 3.809714,14.50247 0,41.966568 0,41.966568 H 12.106224 c 0,0 -3.8097141,-27.020007 0,-41.966568 z"
       sodipodi:nodetypes="scsccs" />
    <path
       id="rect836"
       style="fill:#ffff00;fill-opacity:1;stroke-width:1.13386"
       d="M 40.369141 197.21875 C 40.679688 202.81111 41.050799 208.08441 41.439453 213.16406 L 214.52148 213.16406 C 214.90979 208.08523 215.27887 202.80286 215.5918 197.21875 L 40.369141 197.21875 z "
       transform="scale(0.26458333)" />
    <path
       id="rect841"
       style="fill:#ffff00;fill-opacity:1;stroke-width:1.13386"
       d="M 42.878906 229.94727 C 43.420823 235.52868 43.942643 240.29512 44.396484 244.21484 L 211.58594 244.21484 C 212.03384 240.3011 212.55141 235.51032 213.08789 229.94727 L 42.878906 229.94727 z "
       transform="scale(0.26458333)" />
    <path
       id="path846"
       style="fill:#ececec;fill-opacity:0.584677;stroke-width:0.3"
       d="m 31.712638,9.3260457 c -8.061073,2.8363453 -15.910062,8.7313793 -17.85608,17.2206533 -3.126128,13.637373 0,38.290687 0,38.290687 h 2.309798 c 0,0 -2.931503,-24.653314 0,-38.290687 1.776142,-8.262625 8.79642,-14.066264 16.139765,-16.9855256 -0.197792,-0.079646 -0.395717,-0.1588476 -0.593483,-0.2351277 z" />
  </g>
</svg>
